<?xml version="1.0" standalone="no"?>
<!DOCTYPE svg PUBLIC "-//W3C//DTD SVG 20010904//EN"
 "http://www.w3.org/TR/2001/REC-SVG-20010904/DTD/svg10.dtd">
<svg version="1.0" xmlns="http://www.w3.org/2000/svg"
 width="848.000000pt" height="848.000000pt" viewBox="0 0 848.000000 848.000000"
 preserveAspectRatio="xMidYMid meet">
<metadata>
Created by potrace 1.14, written by Peter Selinger 2001-2017
</metadata>
<g transform="translate(0.000000,848.000000) scale(0.100000,-0.100000)"
fill="#000000" stroke="none">
<path d="M3220 8464 c-76 -20 -73 -19 -95 -31 -11 -6 -24 -11 -28 -11 -27 -1
-130 -74 -192 -136 -54 -54 -82 -93 -114 -157 -22 -46 -43 -95 -45 -109 -3
-14 -5 -25 -6 -25 -13 0 -18 -234 -6 -290 3 -16 14 -50 23 -75 10 -25 18 -47
18 -50 0 -3 15 -32 34 -65 32 -57 191 -223 429 -447 l82 -77 -59 -58 c-32 -32
-143 -139 -246 -238 -178 -172 -313 -306 -497 -496 -133 -138 -535 -554 -628
-649 -47 -48 -179 -185 -295 -305 -115 -119 -248 -256 -295 -305 -167 -172
-505 -522 -515 -533 -47 -51 -108 -174 -132 -262 -4 -17 -9 -956 -10 -2087
l-3 -2058 3600 0 3600 0 0 2054 c0 1362 -4 2057 -10 2061 -6 4 -8 10 -5 15 10
16 -47 155 -91 220 -24 36 -103 126 -176 201 -141 145 -496 512 -744 768 -82
85 -194 200 -249 256 -55 57 -192 198 -305 315 -252 261 -417 431 -514 530
-59 60 -383 375 -552 537 l-33 32 66 63 c36 35 145 142 243 238 165 163 180
181 219 260 22 47 43 99 46 115 2 17 9 44 14 62 10 35 7 199 -4 248 -4 17 -8
37 -10 45 -2 8 -4 16 -5 18 -2 1 -3 5 -4 10 -1 4 -7 17 -14 28 -6 12 -8 24 -5
28 3 3 1 6 -5 6 -7 0 -11 3 -10 8 9 26 -159 232 -189 232 -7 0 -13 4 -13 8 0
8 -94 64 -105 62 -3 0 -19 6 -35 15 -78 40 -254 55 -360 30 -36 -9 -77 -18
-92 -22 -16 -3 -28 -9 -28 -14 0 -5 -9 -9 -20 -9 -11 0 -20 -4 -20 -10 0 -5
-6 -10 -14 -10 -26 0 -119 -79 -319 -272 -110 -106 -213 -206 -229 -221 l-30
-28 -68 68 c-285 281 -486 463 -514 463 -2 0 -21 8 -42 17 -22 9 -42 18 -46
19 -5 1 -9 2 -10 4 -2 1 -10 3 -18 5 -8 2 -28 6 -45 10 -58 14 -219 13 -275
-1z m1084 -2426 c35 -35 153 -148 261 -253 254 -245 209 -199 775 -785 107
-111 515 -532 645 -665 61 -63 200 -207 310 -321 110 -114 214 -220 230 -235
27 -26 30 -36 32 -96 1 -38 3 -68 3 -68 1 0 2 -37 3 -83 1 -45 0 -82 -3 -82
-3 0 -4 -42 -2 -92 3 -121 4 -182 1 -194 -1 -5 -1 -11 0 -14 5 -14 5 -180 1
-180 -5 0 -5 -58 0 -155 1 -22 1 -43 0 -47 -2 -9 -2 -107 0 -110 4 -10 4 -168
0 -168 -3 0 -5 -49 -5 -110 0 -60 3 -110 6 -110 4 0 3 -18 -1 -40 -4 -22 -5
-42 -1 -44 3 -2 4 -44 1 -94 -3 -49 -3 -102 0 -118 3 -16 3 -46 -1 -66 -3 -21
-4 -39 -2 -42 6 -6 9 -176 3 -176 -5 0 -5 -58 0 -155 1 -22 1 -44 0 -50 -2
-13 -2 -108 1 -121 1 -5 1 -25 0 -45 -1 -34 -3 -37 -36 -41 -19 -2 -35 -2 -35
2 0 3 -19 4 -42 3 -81 -4 -93 -4 -153 -4 -33 0 -67 0 -75 0 -146 2 -221 1
-229 -3 -5 -4 -12 -3 -14 2 -3 4 -37 5 -76 2 -39 -3 -71 -2 -71 3 0 4 -4 6 -8
3 -9 -5 -62 -7 -210 -6 -51 1 -97 -2 -102 -5 -5 -3 -11 -1 -15 5 -4 6 -10 8
-15 5 -8 -5 -43 -6 -130 -4 -8 0 -40 0 -70 0 -30 0 -62 0 -70 0 -8 0 -49 0
-90 0 -41 0 -82 0 -90 0 -8 0 -40 0 -70 0 -30 -1 -99 0 -153 1 -53 2 -97 1
-97 -2 0 -3 -31 -5 -70 -5 -38 0 -70 2 -70 5 0 6 -88 3 -106 -4 -8 -3 -14 -2
-14 2 0 4 -54 7 -120 7 -66 0 -120 -3 -120 -7 0 -3 -8 -4 -17 -2 -35 8 -183 9
-183 1 0 -5 -5 -5 -11 -1 -6 3 -57 6 -113 5 -55 -2 -105 -2 -111 -2 -5 0 -39
0 -75 1 -36 1 -69 1 -75 0 -5 -1 -14 -2 -20 0 -5 1 -41 1 -80 0 -38 -1 -74 -1
-80 -1 -5 0 -37 1 -70 1 -33 1 -64 1 -70 0 -5 -2 -14 -2 -18 -1 -5 1 -29 1
-55 1 -26 0 -56 0 -67 -1 -106 0 -132 0 -145 0 -146 2 -221 1 -229 -3 -5 -4
-12 -3 -14 2 -3 4 -37 5 -76 2 -39 -3 -71 -2 -71 3 0 4 -4 6 -8 3 -9 -5 -62
-7 -210 -6 -51 1 -97 -2 -102 -5 -5 -3 -11 -1 -14 3 -3 5 -25 6 -48 3 -24 -4
-56 -4 -73 -1 -16 3 -49 3 -72 -1 -24 -3 -43 -3 -43 0 0 3 -30 6 -68 5 l-67
-1 -5 46 c-3 25 -3 64 0 86 3 22 3 56 0 75 -3 19 -3 46 0 60 4 14 4 36 0 50
-4 14 -4 36 0 50 3 13 3 45 0 70 -3 25 -3 64 1 88 3 24 2 45 -3 48 -5 3 -6 9
-3 14 4 7 6 61 4 130 -1 28 0 165 1 185 4 108 4 135 -1 135 -3 0 -3 20 1 45 4
25 4 48 0 50 -4 2 -4 24 0 47 3 24 3 57 0 74 -4 16 -4 39 0 49 4 11 4 33 1 50
-4 16 -4 46 -1 65 3 19 3 51 0 70 -4 19 -3 46 0 60 4 14 4 36 0 50 -4 14 -4
36 0 50 3 13 3 45 0 70 -3 25 -3 64 1 88 3 24 2 45 -3 48 -5 3 -6 9 -3 14 4 7
6 77 4 130 -1 8 -1 56 0 105 0 50 0 97 0 105 0 8 0 31 0 50 1 19 1 44 1 55 -2
128 1 147 23 169 12 13 128 132 257 266 129 133 271 280 315 325 44 46 170
176 280 289 110 114 254 262 320 330 66 68 215 222 330 341 252 261 188 198
455 455 123 118 249 241 279 272 31 31 57 57 58 57 1 1 31 -27 67 -61z"/>
</g>
</svg>
